<svg width="286" height="69" viewBox="0 0 286 69" fill="none" xmlns="http://www.w3.org/2000/svg">
<g filter="url(#filter0_d_357_48)">
<path d="M77.8992 31.2462H76.6908L65.6292 23.2248V6.90214H61.6321V20.0535L40.8102 4.94343L10.0421 27.7951H21.7544V56.8028H164V61H18.0362V31.2462H4V27.7951L40.8102 0L57.9139 13.1514V3.45107H69.7192V21.6391L77.8992 27.7951V31.2462Z" fill="white"/>
</g>
<g filter="url(#filter1_d_357_48)">
<path d="M276.944 45.2219C274.971 45.2219 273.442 44.6916 272.356 43.6309C271.271 42.5702 270.728 41.0532 270.728 39.0799V21.0979H274.28V38.9319C274.28 39.9926 274.539 40.8066 275.057 41.3739C275.6 41.9412 276.365 42.2249 277.351 42.2249C278.461 42.2249 279.386 41.9166 280.126 41.2999L281.236 43.8529C280.694 44.3216 280.04 44.6669 279.275 44.8889C278.535 45.1109 277.758 45.2219 276.944 45.2219ZM267.398 28.3129V25.3899H279.904V28.3129H267.398Z" fill="white"/>
<path d="M276.944 45.2219C274.971 45.2219 273.442 44.6916 272.356 43.6309C271.271 42.5702 270.728 41.0532 270.728 39.0799V21.0979H274.28V38.9319C274.28 39.9926 274.539 40.8066 275.057 41.3739C275.6 41.9412 276.365 42.2249 277.351 42.2249C278.461 42.2249 279.386 41.9166 280.126 41.2999L281.236 43.8529C280.694 44.3216 280.04 44.6669 279.275 44.8889C278.535 45.1109 277.758 45.2219 276.944 45.2219ZM267.398 28.3129V25.3899H279.904V28.3129H267.398Z" stroke="white"/>
</g>
<g filter="url(#filter2_d_357_48)">
<path d="M257.298 45.222C255.67 45.222 254.116 45 252.636 44.556C251.181 44.112 250.034 43.5693 249.195 42.928L250.675 40.116C251.514 40.6833 252.55 41.1643 253.783 41.559C255.017 41.9536 256.275 42.151 257.557 42.151C259.21 42.151 260.394 41.9166 261.109 41.448C261.849 40.9793 262.219 40.3256 262.219 39.487C262.219 38.8703 261.997 38.3893 261.553 38.044C261.109 37.6986 260.517 37.4396 259.777 37.267C259.062 37.0943 258.26 36.9463 257.372 36.823C256.484 36.675 255.596 36.5023 254.708 36.305C253.82 36.083 253.006 35.787 252.266 35.417C251.526 35.0223 250.934 34.492 250.49 33.826C250.046 33.1353 249.824 32.2226 249.824 31.088C249.824 29.904 250.157 28.868 250.823 27.98C251.489 27.092 252.427 26.4136 253.635 25.945C254.869 25.4516 256.324 25.205 258.001 25.205C259.284 25.205 260.579 25.3653 261.886 25.686C263.218 25.982 264.304 26.4136 265.142 26.981L263.625 29.793C262.737 29.201 261.812 28.794 260.85 28.572C259.888 28.35 258.926 28.239 257.964 28.239C256.41 28.239 255.251 28.498 254.486 29.016C253.722 29.5093 253.339 30.1506 253.339 30.94C253.339 31.606 253.561 32.124 254.005 32.494C254.474 32.8393 255.066 33.1106 255.781 33.308C256.521 33.5053 257.335 33.678 258.223 33.826C259.111 33.9493 259.999 34.122 260.887 34.344C261.775 34.5413 262.577 34.825 263.292 35.195C264.032 35.565 264.624 36.083 265.068 36.749C265.537 37.415 265.771 38.303 265.771 39.413C265.771 40.597 265.426 41.6206 264.735 42.484C264.045 43.3473 263.07 44.0256 261.812 44.519C260.554 44.9876 259.05 45.222 257.298 45.222Z" fill="white"/>
<path d="M257.298 45.222C255.67 45.222 254.116 45 252.636 44.556C251.181 44.112 250.034 43.5693 249.195 42.928L250.675 40.116C251.514 40.6833 252.55 41.1643 253.783 41.559C255.017 41.9536 256.275 42.151 257.557 42.151C259.21 42.151 260.394 41.9166 261.109 41.448C261.849 40.9793 262.219 40.3256 262.219 39.487C262.219 38.8703 261.997 38.3893 261.553 38.044C261.109 37.6986 260.517 37.4396 259.777 37.267C259.062 37.0943 258.26 36.9463 257.372 36.823C256.484 36.675 255.596 36.5023 254.708 36.305C253.82 36.083 253.006 35.787 252.266 35.417C251.526 35.0223 250.934 34.492 250.49 33.826C250.046 33.1353 249.824 32.2226 249.824 31.088C249.824 29.904 250.157 28.868 250.823 27.98C251.489 27.092 252.427 26.4136 253.635 25.945C254.869 25.4516 256.324 25.205 258.001 25.205C259.284 25.205 260.579 25.3653 261.886 25.686C263.218 25.982 264.304 26.4136 265.142 26.981L263.625 29.793C262.737 29.201 261.812 28.794 260.85 28.572C259.888 28.35 258.926 28.239 257.964 28.239C256.41 28.239 255.251 28.498 254.486 29.016C253.722 29.5093 253.339 30.1506 253.339 30.94C253.339 31.606 253.561 32.124 254.005 32.494C254.474 32.8393 255.066 33.1106 255.781 33.308C256.521 33.5053 257.335 33.678 258.223 33.826C259.111 33.9493 259.999 34.122 260.887 34.344C261.775 34.5413 262.577 34.825 263.292 35.195C264.032 35.565 264.624 36.083 265.068 36.749C265.537 37.415 265.771 38.303 265.771 39.413C265.771 40.597 265.426 41.6206 264.735 42.484C264.045 43.3473 263.07 44.0256 261.812 44.519C260.554 44.9876 259.05 45.222 257.298 45.222Z" stroke="white"/>
</g>
<g filter="url(#filter3_d_357_48)">
<path d="M237.751 45.222C235.654 45.222 233.804 44.7903 232.201 43.927C230.622 43.0636 229.389 41.8796 228.501 40.375C227.638 38.8703 227.206 37.1436 227.206 35.195C227.206 33.2463 227.625 31.5196 228.464 30.015C229.327 28.5103 230.499 27.3386 231.979 26.5C233.484 25.6366 235.173 25.205 237.048 25.205C238.947 25.205 240.625 25.6243 242.08 26.463C243.535 27.3016 244.67 28.4856 245.484 30.015C246.323 31.5196 246.742 33.2833 246.742 35.306C246.742 35.454 246.73 35.6266 246.705 35.824C246.705 36.0213 246.693 36.2063 246.668 36.379H229.981V33.826H244.818L243.375 34.714C243.4 33.456 243.141 32.3336 242.598 31.347C242.055 30.3603 241.303 29.5956 240.341 29.053C239.404 28.4856 238.306 28.202 237.048 28.202C235.815 28.202 234.717 28.4856 233.755 29.053C232.793 29.5956 232.041 30.3726 231.498 31.384C230.955 32.3706 230.684 33.5053 230.684 34.788V35.38C230.684 36.6873 230.98 37.859 231.572 38.895C232.189 39.9063 233.04 40.6956 234.125 41.263C235.21 41.8303 236.456 42.114 237.862 42.114C239.021 42.114 240.07 41.9166 241.007 41.522C241.969 41.1273 242.808 40.5353 243.523 39.746L245.484 42.04C244.596 43.076 243.486 43.8653 242.154 44.408C240.847 44.9506 239.379 45.222 237.751 45.222Z" fill="white"/>
<path d="M237.751 45.222C235.654 45.222 233.804 44.7903 232.201 43.927C230.622 43.0636 229.389 41.8796 228.501 40.375C227.638 38.8703 227.206 37.1436 227.206 35.195C227.206 33.2463 227.625 31.5196 228.464 30.015C229.327 28.5103 230.499 27.3386 231.979 26.5C233.484 25.6366 235.173 25.205 237.048 25.205C238.947 25.205 240.625 25.6243 242.08 26.463C243.535 27.3016 244.67 28.4856 245.484 30.015C246.323 31.5196 246.742 33.2833 246.742 35.306C246.742 35.454 246.73 35.6266 246.705 35.824C246.705 36.0213 246.693 36.2063 246.668 36.379H229.981V33.826H244.818L243.375 34.714C243.4 33.456 243.141 32.3336 242.598 31.347C242.055 30.3603 241.303 29.5956 240.341 29.053C239.404 28.4856 238.306 28.202 237.048 28.202C235.815 28.202 234.717 28.4856 233.755 29.053C232.793 29.5956 232.041 30.3726 231.498 31.384C230.955 32.3706 230.684 33.5053 230.684 34.788V35.38C230.684 36.6873 230.98 37.859 231.572 38.895C232.189 39.9063 233.04 40.6956 234.125 41.263C235.21 41.8303 236.456 42.114 237.862 42.114C239.021 42.114 240.07 41.9166 241.007 41.522C241.969 41.1273 242.808 40.5353 243.523 39.746L245.484 42.04C244.596 43.076 243.486 43.8653 242.154 44.408C240.847 44.9506 239.379 45.222 237.751 45.222Z" stroke="white"/>
</g>
<g filter="url(#filter4_d_357_48)">
<path d="M212.23 45.2219C210.553 45.2219 209.073 44.9136 207.79 44.2969C206.532 43.6802 205.545 42.7429 204.83 41.4849C204.139 40.2022 203.794 38.5989 203.794 36.6749V25.3899H207.346V36.2679C207.346 38.1919 207.802 39.6349 208.715 40.5969C209.652 41.5589 210.96 42.0399 212.637 42.0399C213.87 42.0399 214.943 41.7932 215.856 41.2999C216.769 40.7819 217.472 40.0419 217.965 39.0799C218.458 38.0932 218.705 36.9092 218.705 35.5279V25.3899H222.257V44.9999H218.89V39.7089L219.445 41.1149C218.804 42.4222 217.842 43.4336 216.559 44.1489C215.276 44.8642 213.833 45.2219 212.23 45.2219Z" fill="white"/>
<path d="M212.23 45.2219C210.553 45.2219 209.073 44.9136 207.79 44.2969C206.532 43.6802 205.545 42.7429 204.83 41.4849C204.139 40.2022 203.794 38.5989 203.794 36.6749V25.3899H207.346V36.2679C207.346 38.1919 207.802 39.6349 208.715 40.5969C209.652 41.5589 210.96 42.0399 212.637 42.0399C213.87 42.0399 214.943 41.7932 215.856 41.2999C216.769 40.7819 217.472 40.0419 217.965 39.0799C218.458 38.0932 218.705 36.9092 218.705 35.5279V25.3899H222.257V44.9999H218.89V39.7089L219.445 41.1149C218.804 42.4222 217.842 43.4336 216.559 44.1489C215.276 44.8642 213.833 45.2219 212.23 45.2219Z" stroke="white"/>
</g>
<g filter="url(#filter5_d_357_48)">
<path d="M185.115 45.296C183.142 45.296 181.304 44.963 179.602 44.297C177.925 43.631 176.469 42.706 175.236 41.522C174.003 40.3133 173.041 38.9073 172.35 37.304C171.659 35.7006 171.314 33.9493 171.314 32.05C171.314 30.1506 171.659 28.3993 172.35 26.796C173.041 25.1926 174.003 23.799 175.236 22.615C176.469 21.4063 177.925 20.469 179.602 19.803C181.279 19.137 183.117 18.804 185.115 18.804C187.088 18.804 188.901 19.137 190.554 19.803C192.231 20.4443 193.687 21.3693 194.92 22.578C196.178 23.762 197.14 25.1556 197.806 26.759C198.497 28.3623 198.842 30.126 198.842 32.05C198.842 33.974 198.497 35.7376 197.806 37.341C197.14 38.9443 196.178 40.3503 194.92 41.559C193.687 42.743 192.231 43.668 190.554 44.334C188.901 44.9753 187.088 45.296 185.115 45.296ZM193.588 50.402C192.725 50.402 191.898 50.291 191.109 50.069C190.32 49.8716 189.53 49.5386 188.741 49.07C187.952 48.626 187.138 48.034 186.299 47.294C185.46 46.5786 184.548 45.6906 183.561 44.63L187.52 43.594C188.26 44.5066 188.963 45.2466 189.629 45.814C190.32 46.406 190.998 46.8253 191.664 47.072C192.33 47.3433 192.984 47.479 193.625 47.479C195.475 47.479 197.054 46.739 198.361 45.259L200.1 47.368C198.423 49.3906 196.252 50.402 193.588 50.402ZM185.115 42.003C186.546 42.003 187.865 41.7563 189.074 41.263C190.307 40.7696 191.368 40.0666 192.256 39.154C193.169 38.2413 193.872 37.1806 194.365 35.972C194.883 34.7633 195.142 33.456 195.142 32.05C195.142 30.6193 194.883 29.2996 194.365 28.091C193.872 26.8823 193.169 25.834 192.256 24.946C191.368 24.0333 190.307 23.3303 189.074 22.837C187.865 22.3436 186.546 22.097 185.115 22.097C183.66 22.097 182.315 22.3436 181.082 22.837C179.873 23.3303 178.813 24.0333 177.9 24.946C176.987 25.834 176.272 26.8823 175.754 28.091C175.261 29.2996 175.014 30.6193 175.014 32.05C175.014 33.456 175.261 34.7633 175.754 35.972C176.272 37.1806 176.987 38.2413 177.9 39.154C178.813 40.0666 179.873 40.7696 181.082 41.263C182.315 41.7563 183.66 42.003 185.115 42.003Z" fill="white"/>
<path d="M185.115 45.296C183.142 45.296 181.304 44.963 179.602 44.297C177.925 43.631 176.469 42.706 175.236 41.522C174.003 40.3133 173.041 38.9073 172.35 37.304C171.659 35.7006 171.314 33.9493 171.314 32.05C171.314 30.1506 171.659 28.3993 172.35 26.796C173.041 25.1926 174.003 23.799 175.236 22.615C176.469 21.4063 177.925 20.469 179.602 19.803C181.279 19.137 183.117 18.804 185.115 18.804C187.088 18.804 188.901 19.137 190.554 19.803C192.231 20.4443 193.687 21.3693 194.92 22.578C196.178 23.762 197.14 25.1556 197.806 26.759C198.497 28.3623 198.842 30.126 198.842 32.05C198.842 33.974 198.497 35.7376 197.806 37.341C197.14 38.9443 196.178 40.3503 194.92 41.559C193.687 42.743 192.231 43.668 190.554 44.334C188.901 44.9753 187.088 45.296 185.115 45.296ZM193.588 50.402C192.725 50.402 191.898 50.291 191.109 50.069C190.32 49.8716 189.53 49.5386 188.741 49.07C187.952 48.626 187.138 48.034 186.299 47.294C185.46 46.5786 184.548 45.6906 183.561 44.63L187.52 43.594C188.26 44.5066 188.963 45.2466 189.629 45.814C190.32 46.406 190.998 46.8253 191.664 47.072C192.33 47.3433 192.984 47.479 193.625 47.479C195.475 47.479 197.054 46.739 198.361 45.259L200.1 47.368C198.423 49.3906 196.252 50.402 193.588 50.402ZM185.115 42.003C186.546 42.003 187.865 41.7563 189.074 41.263C190.307 40.7696 191.368 40.0666 192.256 39.154C193.169 38.2413 193.872 37.1806 194.365 35.972C194.883 34.7633 195.142 33.456 195.142 32.05C195.142 30.6193 194.883 29.2996 194.365 28.091C193.872 26.8823 193.169 25.834 192.256 24.946C191.368 24.0333 190.307 23.3303 189.074 22.837C187.865 22.3436 186.546 22.097 185.115 22.097C183.66 22.097 182.315 22.3436 181.082 22.837C179.873 23.3303 178.813 24.0333 177.9 24.946C176.987 25.834 176.272 26.8823 175.754 28.091C175.261 29.2996 175.014 30.6193 175.014 32.05C175.014 33.456 175.261 34.7633 175.754 35.972C176.272 37.1806 176.987 38.2413 177.9 39.154C178.813 40.0666 179.873 40.7696 181.082 41.263C182.315 41.7563 183.66 42.003 185.115 42.003Z" stroke="white"/>
</g>
<g filter="url(#filter6_d_357_48)">
<path d="M164.318 45.2219C162.345 45.2219 160.816 44.6916 159.73 43.6309C158.645 42.5702 158.102 41.0532 158.102 39.0799V21.0979H161.654V38.9319C161.654 39.9926 161.913 40.8066 162.431 41.3739C162.974 41.9412 163.739 42.2249 164.725 42.2249C165.835 42.2249 166.76 41.9166 167.5 41.2999L168.61 43.8529C168.068 44.3216 167.414 44.6669 166.649 44.8889C165.909 45.1109 165.132 45.2219 164.318 45.2219ZM154.772 28.3129V25.3899H167.278V28.3129H154.772Z" fill="white"/>
<path d="M164.318 45.2219C162.345 45.2219 160.816 44.6916 159.73 43.6309C158.645 42.5702 158.102 41.0532 158.102 39.0799V21.0979H161.654V38.9319C161.654 39.9926 161.913 40.8066 162.431 41.3739C162.974 41.9412 163.739 42.2249 164.725 42.2249C165.835 42.2249 166.76 41.9166 167.5 41.2999L168.61 43.8529C168.068 44.3216 167.414 44.6669 166.649 44.8889C165.909 45.1109 165.132 45.2219 164.318 45.2219ZM154.772 28.3129V25.3899H167.278V28.3129H154.772Z" stroke="white"/>
</g>
<g filter="url(#filter7_d_357_48)">
<path d="M144.672 45.222C143.044 45.222 141.49 45 140.01 44.556C138.555 44.112 137.408 43.5693 136.569 42.928L138.049 40.116C138.888 40.6833 139.924 41.1643 141.157 41.559C142.391 41.9536 143.649 42.151 144.931 42.151C146.584 42.151 147.768 41.9166 148.483 41.448C149.223 40.9793 149.593 40.3256 149.593 39.487C149.593 38.8703 149.371 38.3893 148.927 38.044C148.483 37.6986 147.891 37.4396 147.151 37.267C146.436 37.0943 145.634 36.9463 144.746 36.823C143.858 36.675 142.97 36.5023 142.082 36.305C141.194 36.083 140.38 35.787 139.64 35.417C138.9 35.0223 138.308 34.492 137.864 33.826C137.42 33.1353 137.198 32.2226 137.198 31.088C137.198 29.904 137.531 28.868 138.197 27.98C138.863 27.092 139.801 26.4136 141.009 25.945C142.243 25.4516 143.698 25.205 145.375 25.205C146.658 25.205 147.953 25.3653 149.26 25.686C150.592 25.982 151.678 26.4136 152.516 26.981L150.999 29.793C150.111 29.201 149.186 28.794 148.224 28.572C147.262 28.35 146.3 28.239 145.338 28.239C143.784 28.239 142.625 28.498 141.86 29.016C141.096 29.5093 140.713 30.1506 140.713 30.94C140.713 31.606 140.935 32.124 141.379 32.494C141.848 32.8393 142.44 33.1106 143.155 33.308C143.895 33.5053 144.709 33.678 145.597 33.826C146.485 33.9493 147.373 34.122 148.261 34.344C149.149 34.5413 149.951 34.825 150.666 35.195C151.406 35.565 151.998 36.083 152.442 36.749C152.911 37.415 153.145 38.303 153.145 39.413C153.145 40.597 152.8 41.6206 152.109 42.484C151.419 43.3473 150.444 44.0256 149.186 44.519C147.928 44.9876 146.424 45.222 144.672 45.222Z" fill="white"/>
<path d="M144.672 45.222C143.044 45.222 141.49 45 140.01 44.556C138.555 44.112 137.408 43.5693 136.569 42.928L138.049 40.116C138.888 40.6833 139.924 41.1643 141.157 41.559C142.391 41.9536 143.649 42.151 144.931 42.151C146.584 42.151 147.768 41.9166 148.483 41.448C149.223 40.9793 149.593 40.3256 149.593 39.487C149.593 38.8703 149.371 38.3893 148.927 38.044C148.483 37.6986 147.891 37.4396 147.151 37.267C146.436 37.0943 145.634 36.9463 144.746 36.823C143.858 36.675 142.97 36.5023 142.082 36.305C141.194 36.083 140.38 35.787 139.64 35.417C138.9 35.0223 138.308 34.492 137.864 33.826C137.42 33.1353 137.198 32.2226 137.198 31.088C137.198 29.904 137.531 28.868 138.197 27.98C138.863 27.092 139.801 26.4136 141.009 25.945C142.243 25.4516 143.698 25.205 145.375 25.205C146.658 25.205 147.953 25.3653 149.26 25.686C150.592 25.982 151.678 26.4136 152.516 26.981L150.999 29.793C150.111 29.201 149.186 28.794 148.224 28.572C147.262 28.35 146.3 28.239 145.338 28.239C143.784 28.239 142.625 28.498 141.86 29.016C141.096 29.5093 140.713 30.1506 140.713 30.94C140.713 31.606 140.935 32.124 141.379 32.494C141.848 32.8393 142.44 33.1106 143.155 33.308C143.895 33.5053 144.709 33.678 145.597 33.826C146.485 33.9493 147.373 34.122 148.261 34.344C149.149 34.5413 149.951 34.825 150.666 35.195C151.406 35.565 151.998 36.083 152.442 36.749C152.911 37.415 153.145 38.303 153.145 39.413C153.145 40.597 152.8 41.6206 152.109 42.484C151.419 43.3473 150.444 44.0256 149.186 44.519C147.928 44.9876 146.424 45.222 144.672 45.222Z" stroke="white"/>
</g>
<g filter="url(#filter8_d_357_48)">
<path d="M125.125 45.222C123.028 45.222 121.178 44.7903 119.575 43.927C117.996 43.0636 116.763 41.8796 115.875 40.375C115.012 38.8703 114.58 37.1436 114.58 35.195C114.58 33.2463 114.999 31.5196 115.838 30.015C116.701 28.5103 117.873 27.3386 119.353 26.5C120.858 25.6366 122.547 25.205 124.422 25.205C126.321 25.205 127.999 25.6243 129.454 26.463C130.909 27.3016 132.044 28.4856 132.858 30.015C133.697 31.5196 134.116 33.2833 134.116 35.306C134.116 35.454 134.104 35.6266 134.079 35.824C134.079 36.0213 134.067 36.2063 134.042 36.379H117.355V33.826H132.192L130.749 34.714C130.774 33.456 130.515 32.3336 129.972 31.347C129.429 30.3603 128.677 29.5956 127.715 29.053C126.778 28.4856 125.68 28.202 124.422 28.202C123.189 28.202 122.091 28.4856 121.129 29.053C120.167 29.5956 119.415 30.3726 118.872 31.384C118.329 32.3706 118.058 33.5053 118.058 34.788V35.38C118.058 36.6873 118.354 37.859 118.946 38.895C119.563 39.9063 120.414 40.6956 121.499 41.263C122.584 41.8303 123.83 42.114 125.236 42.114C126.395 42.114 127.444 41.9166 128.381 41.522C129.343 41.1273 130.182 40.5353 130.897 39.746L132.858 42.04C131.97 43.076 130.86 43.8653 129.528 44.408C128.221 44.9506 126.753 45.222 125.125 45.222Z" fill="white"/>
<path d="M125.125 45.222C123.028 45.222 121.178 44.7903 119.575 43.927C117.996 43.0636 116.763 41.8796 115.875 40.375C115.012 38.8703 114.58 37.1436 114.58 35.195C114.58 33.2463 114.999 31.5196 115.838 30.015C116.701 28.5103 117.873 27.3386 119.353 26.5C120.858 25.6366 122.547 25.205 124.422 25.205C126.321 25.205 127.999 25.6243 129.454 26.463C130.909 27.3016 132.044 28.4856 132.858 30.015C133.697 31.5196 134.116 33.2833 134.116 35.306C134.116 35.454 134.104 35.6266 134.079 35.824C134.079 36.0213 134.067 36.2063 134.042 36.379H117.355V33.826H132.192L130.749 34.714C130.774 33.456 130.515 32.3336 129.972 31.347C129.429 30.3603 128.677 29.5956 127.715 29.053C126.778 28.4856 125.68 28.202 124.422 28.202C123.189 28.202 122.091 28.4856 121.129 29.053C120.167 29.5956 119.415 30.3726 118.872 31.384C118.329 32.3706 118.058 33.5053 118.058 34.788V35.38C118.058 36.6873 118.354 37.859 118.946 38.895C119.563 39.9063 120.414 40.6956 121.499 41.263C122.584 41.8303 123.83 42.114 125.236 42.114C126.395 42.114 127.444 41.9166 128.381 41.522C129.343 41.1273 130.182 40.5353 130.897 39.746L132.858 42.04C131.97 43.076 130.86 43.8653 129.528 44.408C128.221 44.9506 126.753 45.222 125.125 45.222Z" stroke="white"/>
</g>
<g filter="url(#filter9_d_357_48)">
<path d="M86.8848 45V19.1H89.9188L107.05 40.375H105.459V19.1H109.159V45H106.125L88.9938 23.725H90.5848V45H86.8848Z" fill="white"/>
<path d="M86.8848 45V19.1H89.9188L107.05 40.375H105.459V19.1H109.159V45H106.125L88.9938 23.725H90.5848V45H86.8848Z" stroke="white"/>
</g>
<defs>
<filter id="filter0_d_357_48" x="0" y="0" width="168" height="69" filterUnits="userSpaceOnUse" color-interpolation-filters="sRGB">
<feFlood flood-opacity="0" result="BackgroundImageFix"/>
<feColorMatrix in="SourceAlpha" type="matrix" values="0 0 0 0 0 0 0 0 0 0 0 0 0 0 0 0 0 0 127 0" result="hardAlpha"/>
<feOffset dy="4"/>
<feGaussianBlur stdDeviation="2"/>
<feComposite in2="hardAlpha" operator="out"/>
<feColorMatrix type="matrix" values="0 0 0 0 0 0 0 0 0 0 0 0 0 0 0 0 0 0 0.25 0"/>
<feBlend mode="normal" in2="BackgroundImageFix" result="effect1_dropShadow_357_48"/>
<feBlend mode="normal" in="SourceGraphic" in2="effect1_dropShadow_357_48" result="shape"/>
</filter>
<filter id="filter1_d_357_48" x="262.898" y="20.5979" width="22.9434" height="33.124" filterUnits="userSpaceOnUse" color-interpolation-filters="sRGB">
<feFlood flood-opacity="0" result="BackgroundImageFix"/>
<feColorMatrix in="SourceAlpha" type="matrix" values="0 0 0 0 0 0 0 0 0 0 0 0 0 0 0 0 0 0 127 0" result="hardAlpha"/>
<feOffset dy="4"/>
<feGaussianBlur stdDeviation="2"/>
<feComposite in2="hardAlpha" operator="out"/>
<feColorMatrix type="matrix" values="0 0 0 0 0 0 0 0 0 0 0 0 0 0 0 0 0 0 0.25 0"/>
<feBlend mode="normal" in2="BackgroundImageFix" result="effect1_dropShadow_357_48"/>
<feBlend mode="normal" in="SourceGraphic" in2="effect1_dropShadow_357_48" result="shape"/>
</filter>
<filter id="filter2_d_357_48" x="244.556" y="24.705" width="25.7153" height="29.017" filterUnits="userSpaceOnUse" color-interpolation-filters="sRGB">
<feFlood flood-opacity="0" result="BackgroundImageFix"/>
<feColorMatrix in="SourceAlpha" type="matrix" values="0 0 0 0 0 0 0 0 0 0 0 0 0 0 0 0 0 0 127 0" result="hardAlpha"/>
<feOffset dy="4"/>
<feGaussianBlur stdDeviation="2"/>
<feComposite in2="hardAlpha" operator="out"/>
<feColorMatrix type="matrix" values="0 0 0 0 0 0 0 0 0 0 0 0 0 0 0 0 0 0 0.25 0"/>
<feBlend mode="normal" in2="BackgroundImageFix" result="effect1_dropShadow_357_48"/>
<feBlend mode="normal" in="SourceGraphic" in2="effect1_dropShadow_357_48" result="shape"/>
</filter>
<filter id="filter3_d_357_48" x="222.706" y="24.705" width="28.5361" height="29.017" filterUnits="userSpaceOnUse" color-interpolation-filters="sRGB">
<feFlood flood-opacity="0" result="BackgroundImageFix"/>
<feColorMatrix in="SourceAlpha" type="matrix" values="0 0 0 0 0 0 0 0 0 0 0 0 0 0 0 0 0 0 127 0" result="hardAlpha"/>
<feOffset dy="4"/>
<feGaussianBlur stdDeviation="2"/>
<feComposite in2="hardAlpha" operator="out"/>
<feColorMatrix type="matrix" values="0 0 0 0 0 0 0 0 0 0 0 0 0 0 0 0 0 0 0.25 0"/>
<feBlend mode="normal" in2="BackgroundImageFix" result="effect1_dropShadow_357_48"/>
<feBlend mode="normal" in="SourceGraphic" in2="effect1_dropShadow_357_48" result="shape"/>
</filter>
<filter id="filter4_d_357_48" x="199.294" y="24.8899" width="27.4629" height="28.832" filterUnits="userSpaceOnUse" color-interpolation-filters="sRGB">
<feFlood flood-opacity="0" result="BackgroundImageFix"/>
<feColorMatrix in="SourceAlpha" type="matrix" values="0 0 0 0 0 0 0 0 0 0 0 0 0 0 0 0 0 0 127 0" result="hardAlpha"/>
<feOffset dy="4"/>
<feGaussianBlur stdDeviation="2"/>
<feComposite in2="hardAlpha" operator="out"/>
<feColorMatrix type="matrix" values="0 0 0 0 0 0 0 0 0 0 0 0 0 0 0 0 0 0 0.25 0"/>
<feBlend mode="normal" in2="BackgroundImageFix" result="effect1_dropShadow_357_48"/>
<feBlend mode="normal" in="SourceGraphic" in2="effect1_dropShadow_357_48" result="shape"/>
</filter>
<filter id="filter5_d_357_48" x="166.814" y="18.304" width="37.9346" height="40.598" filterUnits="userSpaceOnUse" color-interpolation-filters="sRGB">
<feFlood flood-opacity="0" result="BackgroundImageFix"/>
<feColorMatrix in="SourceAlpha" type="matrix" values="0 0 0 0 0 0 0 0 0 0 0 0 0 0 0 0 0 0 127 0" result="hardAlpha"/>
<feOffset dy="4"/>
<feGaussianBlur stdDeviation="2"/>
<feComposite in2="hardAlpha" operator="out"/>
<feColorMatrix type="matrix" values="0 0 0 0 0 0 0 0 0 0 0 0 0 0 0 0 0 0 0.25 0"/>
<feBlend mode="normal" in2="BackgroundImageFix" result="effect1_dropShadow_357_48"/>
<feBlend mode="normal" in="SourceGraphic" in2="effect1_dropShadow_357_48" result="shape"/>
</filter>
<filter id="filter6_d_357_48" x="150.272" y="20.5979" width="22.9434" height="33.124" filterUnits="userSpaceOnUse" color-interpolation-filters="sRGB">
<feFlood flood-opacity="0" result="BackgroundImageFix"/>
<feColorMatrix in="SourceAlpha" type="matrix" values="0 0 0 0 0 0 0 0 0 0 0 0 0 0 0 0 0 0 127 0" result="hardAlpha"/>
<feOffset dy="4"/>
<feGaussianBlur stdDeviation="2"/>
<feComposite in2="hardAlpha" operator="out"/>
<feColorMatrix type="matrix" values="0 0 0 0 0 0 0 0 0 0 0 0 0 0 0 0 0 0 0.25 0"/>
<feBlend mode="normal" in2="BackgroundImageFix" result="effect1_dropShadow_357_48"/>
<feBlend mode="normal" in="SourceGraphic" in2="effect1_dropShadow_357_48" result="shape"/>
</filter>
<filter id="filter7_d_357_48" x="131.93" y="24.705" width="25.7153" height="29.017" filterUnits="userSpaceOnUse" color-interpolation-filters="sRGB">
<feFlood flood-opacity="0" result="BackgroundImageFix"/>
<feColorMatrix in="SourceAlpha" type="matrix" values="0 0 0 0 0 0 0 0 0 0 0 0 0 0 0 0 0 0 127 0" result="hardAlpha"/>
<feOffset dy="4"/>
<feGaussianBlur stdDeviation="2"/>
<feComposite in2="hardAlpha" operator="out"/>
<feColorMatrix type="matrix" values="0 0 0 0 0 0 0 0 0 0 0 0 0 0 0 0 0 0 0.25 0"/>
<feBlend mode="normal" in2="BackgroundImageFix" result="effect1_dropShadow_357_48"/>
<feBlend mode="normal" in="SourceGraphic" in2="effect1_dropShadow_357_48" result="shape"/>
</filter>
<filter id="filter8_d_357_48" x="110.08" y="24.705" width="28.5361" height="29.017" filterUnits="userSpaceOnUse" color-interpolation-filters="sRGB">
<feFlood flood-opacity="0" result="BackgroundImageFix"/>
<feColorMatrix in="SourceAlpha" type="matrix" values="0 0 0 0 0 0 0 0 0 0 0 0 0 0 0 0 0 0 127 0" result="hardAlpha"/>
<feOffset dy="4"/>
<feGaussianBlur stdDeviation="2"/>
<feComposite in2="hardAlpha" operator="out"/>
<feColorMatrix type="matrix" values="0 0 0 0 0 0 0 0 0 0 0 0 0 0 0 0 0 0 0.25 0"/>
<feBlend mode="normal" in2="BackgroundImageFix" result="effect1_dropShadow_357_48"/>
<feBlend mode="normal" in="SourceGraphic" in2="effect1_dropShadow_357_48" result="shape"/>
</filter>
<filter id="filter9_d_357_48" x="82.3848" y="18.6" width="31.2739" height="34.9" filterUnits="userSpaceOnUse" color-interpolation-filters="sRGB">
<feFlood flood-opacity="0" result="BackgroundImageFix"/>
<feColorMatrix in="SourceAlpha" type="matrix" values="0 0 0 0 0 0 0 0 0 0 0 0 0 0 0 0 0 0 127 0" result="hardAlpha"/>
<feOffset dy="4"/>
<feGaussianBlur stdDeviation="2"/>
<feComposite in2="hardAlpha" operator="out"/>
<feColorMatrix type="matrix" values="0 0 0 0 0 0 0 0 0 0 0 0 0 0 0 0 0 0 0.25 0"/>
<feBlend mode="normal" in2="BackgroundImageFix" result="effect1_dropShadow_357_48"/>
<feBlend mode="normal" in="SourceGraphic" in2="effect1_dropShadow_357_48" result="shape"/>
</filter>
</defs>
</svg>
