<svg width="288" height="69" viewBox="0 0 288 69" fill="none" xmlns="http://www.w3.org/2000/svg">
<g filter="url(#filter0_d_353_22)">
<path d="M77.8992 31.2462H76.6908L65.6292 23.2248V6.90214H61.6321V20.0535L40.8102 4.94343L10.0421 27.7951H21.7544V56.8028H164V61H18.0362V31.2462H4V27.7951L40.8102 0L57.9139 13.1514V3.45107H69.7192V21.6391L77.8992 27.7951V31.2462Z" fill="black"/>
</g>
<g filter="url(#filter1_d_353_22)">
<path d="M278.944 45.2219C276.971 45.2219 275.442 44.6916 274.356 43.6309C273.271 42.5702 272.728 41.0532 272.728 39.0799V21.0979H276.28V38.9319C276.28 39.9926 276.539 40.8066 277.057 41.3739C277.6 41.9412 278.365 42.2249 279.351 42.2249C280.461 42.2249 281.386 41.9166 282.126 41.2999L283.236 43.8529C282.694 44.3216 282.04 44.6669 281.275 44.8889C280.535 45.1109 279.758 45.2219 278.944 45.2219ZM269.398 28.3129V25.3899H281.904V28.3129H269.398Z" fill="black"/>
</g>
<g filter="url(#filter2_d_353_22)">
<path d="M259.298 45.222C257.67 45.222 256.116 45 254.636 44.556C253.181 44.112 252.034 43.5693 251.195 42.928L252.675 40.116C253.514 40.6833 254.55 41.1643 255.783 41.559C257.017 41.9536 258.275 42.151 259.557 42.151C261.21 42.151 262.394 41.9166 263.109 41.448C263.849 40.9793 264.219 40.3256 264.219 39.487C264.219 38.8703 263.997 38.3893 263.553 38.044C263.109 37.6986 262.517 37.4396 261.777 37.267C261.062 37.0943 260.26 36.9463 259.372 36.823C258.484 36.675 257.596 36.5023 256.708 36.305C255.82 36.083 255.006 35.787 254.266 35.417C253.526 35.0223 252.934 34.492 252.49 33.826C252.046 33.1353 251.824 32.2226 251.824 31.088C251.824 29.904 252.157 28.868 252.823 27.98C253.489 27.092 254.427 26.4136 255.635 25.945C256.869 25.4516 258.324 25.205 260.001 25.205C261.284 25.205 262.579 25.3653 263.886 25.686C265.218 25.982 266.304 26.4136 267.142 26.981L265.625 29.793C264.737 29.201 263.812 28.794 262.85 28.572C261.888 28.35 260.926 28.239 259.964 28.239C258.41 28.239 257.251 28.498 256.486 29.016C255.722 29.5093 255.339 30.1506 255.339 30.94C255.339 31.606 255.561 32.124 256.005 32.494C256.474 32.8393 257.066 33.1106 257.781 33.308C258.521 33.5053 259.335 33.678 260.223 33.826C261.111 33.9493 261.999 34.122 262.887 34.344C263.775 34.5413 264.577 34.825 265.292 35.195C266.032 35.565 266.624 36.083 267.068 36.749C267.537 37.415 267.771 38.303 267.771 39.413C267.771 40.597 267.426 41.6206 266.735 42.484C266.045 43.3473 265.07 44.0256 263.812 44.519C262.554 44.9876 261.05 45.222 259.298 45.222Z" fill="black"/>
</g>
<g filter="url(#filter3_d_353_22)">
<path d="M239.751 45.222C237.654 45.222 235.804 44.7903 234.201 43.927C232.622 43.0636 231.389 41.8796 230.501 40.375C229.638 38.8703 229.206 37.1436 229.206 35.195C229.206 33.2463 229.625 31.5196 230.464 30.015C231.327 28.5103 232.499 27.3386 233.979 26.5C235.484 25.6366 237.173 25.205 239.048 25.205C240.947 25.205 242.625 25.6243 244.08 26.463C245.535 27.3016 246.67 28.4856 247.484 30.015C248.323 31.5196 248.742 33.2833 248.742 35.306C248.742 35.454 248.73 35.6266 248.705 35.824C248.705 36.0213 248.693 36.2063 248.668 36.379H231.981V33.826H246.818L245.375 34.714C245.4 33.456 245.141 32.3336 244.598 31.347C244.055 30.3603 243.303 29.5956 242.341 29.053C241.404 28.4856 240.306 28.202 239.048 28.202C237.815 28.202 236.717 28.4856 235.755 29.053C234.793 29.5956 234.041 30.3726 233.498 31.384C232.955 32.3706 232.684 33.5053 232.684 34.788V35.38C232.684 36.6873 232.98 37.859 233.572 38.895C234.189 39.9063 235.04 40.6956 236.125 41.263C237.21 41.8303 238.456 42.114 239.862 42.114C241.021 42.114 242.07 41.9166 243.007 41.522C243.969 41.1273 244.808 40.5353 245.523 39.746L247.484 42.04C246.596 43.076 245.486 43.8653 244.154 44.408C242.847 44.9506 241.379 45.222 239.751 45.222Z" fill="black"/>
</g>
<g filter="url(#filter4_d_353_22)">
<path d="M214.23 45.2219C212.553 45.2219 211.073 44.9136 209.79 44.2969C208.532 43.6802 207.545 42.7429 206.83 41.4849C206.139 40.2022 205.794 38.5989 205.794 36.6749V25.3899H209.346V36.2679C209.346 38.1919 209.802 39.6349 210.715 40.5969C211.652 41.5589 212.96 42.0399 214.637 42.0399C215.87 42.0399 216.943 41.7932 217.856 41.2999C218.769 40.7819 219.472 40.0419 219.965 39.0799C220.458 38.0932 220.705 36.9092 220.705 35.5279V25.3899H224.257V44.9999H220.89V39.7089L221.445 41.1149C220.804 42.4222 219.842 43.4336 218.559 44.1489C217.276 44.8642 215.833 45.2219 214.23 45.2219Z" fill="black"/>
</g>
<g filter="url(#filter5_d_353_22)">
<path d="M187.115 45.296C185.142 45.296 183.304 44.963 181.602 44.297C179.925 43.631 178.469 42.706 177.236 41.522C176.003 40.3133 175.041 38.9073 174.35 37.304C173.659 35.7006 173.314 33.9493 173.314 32.05C173.314 30.1506 173.659 28.3993 174.35 26.796C175.041 25.1926 176.003 23.799 177.236 22.615C178.469 21.4063 179.925 20.469 181.602 19.803C183.279 19.137 185.117 18.804 187.115 18.804C189.088 18.804 190.901 19.137 192.554 19.803C194.231 20.4443 195.687 21.3693 196.92 22.578C198.178 23.762 199.14 25.1556 199.806 26.759C200.497 28.3623 200.842 30.126 200.842 32.05C200.842 33.974 200.497 35.7376 199.806 37.341C199.14 38.9443 198.178 40.3503 196.92 41.559C195.687 42.743 194.231 43.668 192.554 44.334C190.901 44.9753 189.088 45.296 187.115 45.296ZM195.588 50.402C194.725 50.402 193.898 50.291 193.109 50.069C192.32 49.8716 191.53 49.5386 190.741 49.07C189.952 48.626 189.138 48.034 188.299 47.294C187.46 46.5786 186.548 45.6906 185.561 44.63L189.52 43.594C190.26 44.5066 190.963 45.2466 191.629 45.814C192.32 46.406 192.998 46.8253 193.664 47.072C194.33 47.3433 194.984 47.479 195.625 47.479C197.475 47.479 199.054 46.739 200.361 45.259L202.1 47.368C200.423 49.3906 198.252 50.402 195.588 50.402ZM187.115 42.003C188.546 42.003 189.865 41.7563 191.074 41.263C192.307 40.7696 193.368 40.0666 194.256 39.154C195.169 38.2413 195.872 37.1806 196.365 35.972C196.883 34.7633 197.142 33.456 197.142 32.05C197.142 30.6193 196.883 29.2996 196.365 28.091C195.872 26.8823 195.169 25.834 194.256 24.946C193.368 24.0333 192.307 23.3303 191.074 22.837C189.865 22.3436 188.546 22.097 187.115 22.097C185.66 22.097 184.315 22.3436 183.082 22.837C181.873 23.3303 180.813 24.0333 179.9 24.946C178.987 25.834 178.272 26.8823 177.754 28.091C177.261 29.2996 177.014 30.6193 177.014 32.05C177.014 33.456 177.261 34.7633 177.754 35.972C178.272 37.1806 178.987 38.2413 179.9 39.154C180.813 40.0666 181.873 40.7696 183.082 41.263C184.315 41.7563 185.66 42.003 187.115 42.003Z" fill="black"/>
</g>
<g filter="url(#filter6_d_353_22)">
<path d="M166.318 45.2219C164.345 45.2219 162.816 44.6916 161.73 43.6309C160.645 42.5702 160.102 41.0532 160.102 39.0799V21.0979H163.654V38.9319C163.654 39.9926 163.913 40.8066 164.431 41.3739C164.974 41.9412 165.739 42.2249 166.725 42.2249C167.835 42.2249 168.76 41.9166 169.5 41.2999L170.61 43.8529C170.068 44.3216 169.414 44.6669 168.649 44.8889C167.909 45.1109 167.132 45.2219 166.318 45.2219ZM156.772 28.3129V25.3899H169.278V28.3129H156.772Z" fill="black"/>
</g>
<g filter="url(#filter7_d_353_22)">
<path d="M146.672 45.222C145.044 45.222 143.49 45 142.01 44.556C140.555 44.112 139.408 43.5693 138.569 42.928L140.049 40.116C140.888 40.6833 141.924 41.1643 143.157 41.559C144.391 41.9536 145.649 42.151 146.931 42.151C148.584 42.151 149.768 41.9166 150.483 41.448C151.223 40.9793 151.593 40.3256 151.593 39.487C151.593 38.8703 151.371 38.3893 150.927 38.044C150.483 37.6986 149.891 37.4396 149.151 37.267C148.436 37.0943 147.634 36.9463 146.746 36.823C145.858 36.675 144.97 36.5023 144.082 36.305C143.194 36.083 142.38 35.787 141.64 35.417C140.9 35.0223 140.308 34.492 139.864 33.826C139.42 33.1353 139.198 32.2226 139.198 31.088C139.198 29.904 139.531 28.868 140.197 27.98C140.863 27.092 141.801 26.4136 143.009 25.945C144.243 25.4516 145.698 25.205 147.375 25.205C148.658 25.205 149.953 25.3653 151.26 25.686C152.592 25.982 153.678 26.4136 154.516 26.981L152.999 29.793C152.111 29.201 151.186 28.794 150.224 28.572C149.262 28.35 148.3 28.239 147.338 28.239C145.784 28.239 144.625 28.498 143.86 29.016C143.096 29.5093 142.713 30.1506 142.713 30.94C142.713 31.606 142.935 32.124 143.379 32.494C143.848 32.8393 144.44 33.1106 145.155 33.308C145.895 33.5053 146.709 33.678 147.597 33.826C148.485 33.9493 149.373 34.122 150.261 34.344C151.149 34.5413 151.951 34.825 152.666 35.195C153.406 35.565 153.998 36.083 154.442 36.749C154.911 37.415 155.145 38.303 155.145 39.413C155.145 40.597 154.8 41.6206 154.109 42.484C153.419 43.3473 152.444 44.0256 151.186 44.519C149.928 44.9876 148.424 45.222 146.672 45.222Z" fill="black"/>
</g>
<g filter="url(#filter8_d_353_22)">
<path d="M127.125 45.222C125.028 45.222 123.178 44.7903 121.575 43.927C119.996 43.0636 118.763 41.8796 117.875 40.375C117.012 38.8703 116.58 37.1436 116.58 35.195C116.58 33.2463 116.999 31.5196 117.838 30.015C118.701 28.5103 119.873 27.3386 121.353 26.5C122.858 25.6366 124.547 25.205 126.422 25.205C128.321 25.205 129.999 25.6243 131.454 26.463C132.909 27.3016 134.044 28.4856 134.858 30.015C135.697 31.5196 136.116 33.2833 136.116 35.306C136.116 35.454 136.104 35.6266 136.079 35.824C136.079 36.0213 136.067 36.2063 136.042 36.379H119.355V33.826H134.192L132.749 34.714C132.774 33.456 132.515 32.3336 131.972 31.347C131.429 30.3603 130.677 29.5956 129.715 29.053C128.778 28.4856 127.68 28.202 126.422 28.202C125.189 28.202 124.091 28.4856 123.129 29.053C122.167 29.5956 121.415 30.3726 120.872 31.384C120.329 32.3706 120.058 33.5053 120.058 34.788V35.38C120.058 36.6873 120.354 37.859 120.946 38.895C121.563 39.9063 122.414 40.6956 123.499 41.263C124.584 41.8303 125.83 42.114 127.236 42.114C128.395 42.114 129.444 41.9166 130.381 41.522C131.343 41.1273 132.182 40.5353 132.897 39.746L134.858 42.04C133.97 43.076 132.86 43.8653 131.528 44.408C130.221 44.9506 128.753 45.222 127.125 45.222Z" fill="black"/>
</g>
<g filter="url(#filter9_d_353_22)">
<path d="M88.8848 45V19.1H91.9188L109.05 40.375H107.459V19.1H111.159V45H108.125L90.9938 23.725H92.5848V45H88.8848Z" fill="black"/>
</g>
<defs>
<filter id="filter0_d_353_22" x="0" y="0" width="168" height="69" filterUnits="userSpaceOnUse" color-interpolation-filters="sRGB">
<feFlood flood-opacity="0" result="BackgroundImageFix"/>
<feColorMatrix in="SourceAlpha" type="matrix" values="0 0 0 0 0 0 0 0 0 0 0 0 0 0 0 0 0 0 127 0" result="hardAlpha"/>
<feOffset dy="4"/>
<feGaussianBlur stdDeviation="2"/>
<feComposite in2="hardAlpha" operator="out"/>
<feColorMatrix type="matrix" values="0 0 0 0 0 0 0 0 0 0 0 0 0 0 0 0 0 0 0.25 0"/>
<feBlend mode="normal" in2="BackgroundImageFix" result="effect1_dropShadow_353_22"/>
<feBlend mode="normal" in="SourceGraphic" in2="effect1_dropShadow_353_22" result="shape"/>
</filter>
<filter id="filter1_d_353_22" x="265.398" y="21.0979" width="21.8379" height="32.124" filterUnits="userSpaceOnUse" color-interpolation-filters="sRGB">
<feFlood flood-opacity="0" result="BackgroundImageFix"/>
<feColorMatrix in="SourceAlpha" type="matrix" values="0 0 0 0 0 0 0 0 0 0 0 0 0 0 0 0 0 0 127 0" result="hardAlpha"/>
<feOffset dy="4"/>
<feGaussianBlur stdDeviation="2"/>
<feComposite in2="hardAlpha" operator="out"/>
<feColorMatrix type="matrix" values="0 0 0 0 0 0 0 0 0 0 0 0 0 0 0 0 0 0 0.25 0"/>
<feBlend mode="normal" in2="BackgroundImageFix" result="effect1_dropShadow_353_22"/>
<feBlend mode="normal" in="SourceGraphic" in2="effect1_dropShadow_353_22" result="shape"/>
</filter>
<filter id="filter2_d_353_22" x="247.195" y="25.205" width="24.5762" height="28.017" filterUnits="userSpaceOnUse" color-interpolation-filters="sRGB">
<feFlood flood-opacity="0" result="BackgroundImageFix"/>
<feColorMatrix in="SourceAlpha" type="matrix" values="0 0 0 0 0 0 0 0 0 0 0 0 0 0 0 0 0 0 127 0" result="hardAlpha"/>
<feOffset dy="4"/>
<feGaussianBlur stdDeviation="2"/>
<feComposite in2="hardAlpha" operator="out"/>
<feColorMatrix type="matrix" values="0 0 0 0 0 0 0 0 0 0 0 0 0 0 0 0 0 0 0.25 0"/>
<feBlend mode="normal" in2="BackgroundImageFix" result="effect1_dropShadow_353_22"/>
<feBlend mode="normal" in="SourceGraphic" in2="effect1_dropShadow_353_22" result="shape"/>
</filter>
<filter id="filter3_d_353_22" x="225.206" y="25.205" width="27.5361" height="28.017" filterUnits="userSpaceOnUse" color-interpolation-filters="sRGB">
<feFlood flood-opacity="0" result="BackgroundImageFix"/>
<feColorMatrix in="SourceAlpha" type="matrix" values="0 0 0 0 0 0 0 0 0 0 0 0 0 0 0 0 0 0 127 0" result="hardAlpha"/>
<feOffset dy="4"/>
<feGaussianBlur stdDeviation="2"/>
<feComposite in2="hardAlpha" operator="out"/>
<feColorMatrix type="matrix" values="0 0 0 0 0 0 0 0 0 0 0 0 0 0 0 0 0 0 0.25 0"/>
<feBlend mode="normal" in2="BackgroundImageFix" result="effect1_dropShadow_353_22"/>
<feBlend mode="normal" in="SourceGraphic" in2="effect1_dropShadow_353_22" result="shape"/>
</filter>
<filter id="filter4_d_353_22" x="201.794" y="25.3899" width="26.4629" height="27.832" filterUnits="userSpaceOnUse" color-interpolation-filters="sRGB">
<feFlood flood-opacity="0" result="BackgroundImageFix"/>
<feColorMatrix in="SourceAlpha" type="matrix" values="0 0 0 0 0 0 0 0 0 0 0 0 0 0 0 0 0 0 127 0" result="hardAlpha"/>
<feOffset dy="4"/>
<feGaussianBlur stdDeviation="2"/>
<feComposite in2="hardAlpha" operator="out"/>
<feColorMatrix type="matrix" values="0 0 0 0 0 0 0 0 0 0 0 0 0 0 0 0 0 0 0.25 0"/>
<feBlend mode="normal" in2="BackgroundImageFix" result="effect1_dropShadow_353_22"/>
<feBlend mode="normal" in="SourceGraphic" in2="effect1_dropShadow_353_22" result="shape"/>
</filter>
<filter id="filter5_d_353_22" x="169.314" y="18.804" width="36.7861" height="39.598" filterUnits="userSpaceOnUse" color-interpolation-filters="sRGB">
<feFlood flood-opacity="0" result="BackgroundImageFix"/>
<feColorMatrix in="SourceAlpha" type="matrix" values="0 0 0 0 0 0 0 0 0 0 0 0 0 0 0 0 0 0 127 0" result="hardAlpha"/>
<feOffset dy="4"/>
<feGaussianBlur stdDeviation="2"/>
<feComposite in2="hardAlpha" operator="out"/>
<feColorMatrix type="matrix" values="0 0 0 0 0 0 0 0 0 0 0 0 0 0 0 0 0 0 0.25 0"/>
<feBlend mode="normal" in2="BackgroundImageFix" result="effect1_dropShadow_353_22"/>
<feBlend mode="normal" in="SourceGraphic" in2="effect1_dropShadow_353_22" result="shape"/>
</filter>
<filter id="filter6_d_353_22" x="152.772" y="21.0979" width="21.8379" height="32.124" filterUnits="userSpaceOnUse" color-interpolation-filters="sRGB">
<feFlood flood-opacity="0" result="BackgroundImageFix"/>
<feColorMatrix in="SourceAlpha" type="matrix" values="0 0 0 0 0 0 0 0 0 0 0 0 0 0 0 0 0 0 127 0" result="hardAlpha"/>
<feOffset dy="4"/>
<feGaussianBlur stdDeviation="2"/>
<feComposite in2="hardAlpha" operator="out"/>
<feColorMatrix type="matrix" values="0 0 0 0 0 0 0 0 0 0 0 0 0 0 0 0 0 0 0.25 0"/>
<feBlend mode="normal" in2="BackgroundImageFix" result="effect1_dropShadow_353_22"/>
<feBlend mode="normal" in="SourceGraphic" in2="effect1_dropShadow_353_22" result="shape"/>
</filter>
<filter id="filter7_d_353_22" x="134.569" y="25.205" width="24.5762" height="28.017" filterUnits="userSpaceOnUse" color-interpolation-filters="sRGB">
<feFlood flood-opacity="0" result="BackgroundImageFix"/>
<feColorMatrix in="SourceAlpha" type="matrix" values="0 0 0 0 0 0 0 0 0 0 0 0 0 0 0 0 0 0 127 0" result="hardAlpha"/>
<feOffset dy="4"/>
<feGaussianBlur stdDeviation="2"/>
<feComposite in2="hardAlpha" operator="out"/>
<feColorMatrix type="matrix" values="0 0 0 0 0 0 0 0 0 0 0 0 0 0 0 0 0 0 0.25 0"/>
<feBlend mode="normal" in2="BackgroundImageFix" result="effect1_dropShadow_353_22"/>
<feBlend mode="normal" in="SourceGraphic" in2="effect1_dropShadow_353_22" result="shape"/>
</filter>
<filter id="filter8_d_353_22" x="112.58" y="25.205" width="27.5361" height="28.017" filterUnits="userSpaceOnUse" color-interpolation-filters="sRGB">
<feFlood flood-opacity="0" result="BackgroundImageFix"/>
<feColorMatrix in="SourceAlpha" type="matrix" values="0 0 0 0 0 0 0 0 0 0 0 0 0 0 0 0 0 0 127 0" result="hardAlpha"/>
<feOffset dy="4"/>
<feGaussianBlur stdDeviation="2"/>
<feComposite in2="hardAlpha" operator="out"/>
<feColorMatrix type="matrix" values="0 0 0 0 0 0 0 0 0 0 0 0 0 0 0 0 0 0 0.25 0"/>
<feBlend mode="normal" in2="BackgroundImageFix" result="effect1_dropShadow_353_22"/>
<feBlend mode="normal" in="SourceGraphic" in2="effect1_dropShadow_353_22" result="shape"/>
</filter>
<filter id="filter9_d_353_22" x="84.8848" y="19.1" width="30.2739" height="33.9" filterUnits="userSpaceOnUse" color-interpolation-filters="sRGB">
<feFlood flood-opacity="0" result="BackgroundImageFix"/>
<feColorMatrix in="SourceAlpha" type="matrix" values="0 0 0 0 0 0 0 0 0 0 0 0 0 0 0 0 0 0 127 0" result="hardAlpha"/>
<feOffset dy="4"/>
<feGaussianBlur stdDeviation="2"/>
<feComposite in2="hardAlpha" operator="out"/>
<feColorMatrix type="matrix" values="0 0 0 0 0 0 0 0 0 0 0 0 0 0 0 0 0 0 0.25 0"/>
<feBlend mode="normal" in2="BackgroundImageFix" result="effect1_dropShadow_353_22"/>
<feBlend mode="normal" in="SourceGraphic" in2="effect1_dropShadow_353_22" result="shape"/>
</filter>
</defs>
</svg>
